<?xml version="1.0" encoding="UTF-8" standalone="no"?>
<!DOCTYPE svg PUBLIC "-//W3C//DTD SVG 1.1//EN" "http://www.w3.org/Graphics/SVG/1.1/DTD/svg11.dtd">
<svg width="100%" height="100%" viewBox="0 0 1200 1201" version="1.1" xmlns="http://www.w3.org/2000/svg" xmlns:xlink="http://www.w3.org/1999/xlink" xml:space="preserve" xmlns:serif="http://www.serif.com/" style="fill-rule:evenodd;clip-rule:evenodd;stroke-linejoin:round;stroke-miterlimit:2;">
    <g transform="matrix(1,0,0,1,0,-1354)">
        <g id="qr-code-logo" transform="matrix(0.517241,0,0,1.66667,-1225.86,1354.7)">
            <rect x="2370" y="0" width="2320" height="720" style="fill:none;"/>
            <g transform="matrix(3.02073,0,0,0.937467,1633.61,-1493.6)">
                <circle cx="627.791" cy="1977.24" r="118.949"/>
            </g>
            <g transform="matrix(9.11828,-0.921903,2.97058,2.82981,184.213,43.0649)">
                <path d="M305.509,229.458C303.371,230.176 301.082,230.566 298.703,230.566C286.907,230.566 277.33,220.989 277.33,209.193C277.33,197.396 286.907,187.819 298.703,187.819C310.499,187.819 320.076,197.396 320.076,209.193C320.076,214.744 317.956,219.804 314.48,223.605L318.609,229.292L309.952,235.577L305.509,229.458ZM292.837,219.045C292.926,219.176 293.028,219.3 293.143,219.416C293.193,219.466 293.244,219.513 293.296,219.558C293.851,220.033 294.561,220.234 295.248,220.159C295.353,220.148 295.459,220.13 295.563,220.105C296.009,219.999 296.432,219.774 296.78,219.427L311.373,204.926C312.379,203.925 312.384,202.295 311.384,201.289C310.383,200.282 308.754,200.277 307.747,201.277L295.307,213.64L291.664,208.511C290.842,207.354 289.235,207.081 288.078,207.903C286.921,208.725 286.649,210.332 287.471,211.489L292.837,219.045Z" style="fill:rgb(255,221,0);"/>
            </g>
        </g>
    </g>
</svg>
